<mxfile host="app.diagrams.net" agent="Mozilla/5.0 (Windows NT 10.0; Win64; x64) AppleWebKit/537.36 (KHTML, like Gecko) Chrome/134.0.0.0 Safari/537.36 Edg/134.0.0.0" version="27.2.0">
  <diagram name="Page-1" id="Qx7ITwCU23osxingWiA1">
    <mxGraphModel dx="1418" dy="760" grid="1" gridSize="10" guides="1" tooltips="1" connect="1" arrows="1" fold="1" page="1" pageScale="1" pageWidth="850" pageHeight="1100" math="0" shadow="0">
      <root>
        <mxCell id="0" />
        <mxCell id="1" parent="0" />
        <mxCell id="eGbX5_sSYhPdws3wWJT4-3" value="" style="edgeStyle=orthogonalEdgeStyle;rounded=0;orthogonalLoop=1;jettySize=auto;html=1;" edge="1" parent="1" source="eGbX5_sSYhPdws3wWJT4-1" target="eGbX5_sSYhPdws3wWJT4-2">
          <mxGeometry relative="1" as="geometry" />
        </mxCell>
        <mxCell id="eGbX5_sSYhPdws3wWJT4-1" value="incoming call" style="rounded=1;whiteSpace=wrap;html=1;" vertex="1" parent="1">
          <mxGeometry x="350" y="40" width="120" height="60" as="geometry" />
        </mxCell>
        <mxCell id="eGbX5_sSYhPdws3wWJT4-5" value="" style="edgeStyle=orthogonalEdgeStyle;rounded=0;orthogonalLoop=1;jettySize=auto;html=1;" edge="1" parent="1" source="eGbX5_sSYhPdws3wWJT4-2" target="eGbX5_sSYhPdws3wWJT4-4">
          <mxGeometry relative="1" as="geometry" />
        </mxCell>
        <mxCell id="eGbX5_sSYhPdws3wWJT4-2" value="3cx exchange ivr OR Mock API&amp;nbsp; hosted to receive calls" style="rounded=1;whiteSpace=wrap;html=1;" vertex="1" parent="1">
          <mxGeometry x="350" y="130" width="120" height="60" as="geometry" />
        </mxCell>
        <mxCell id="eGbX5_sSYhPdws3wWJT4-7" value="" style="edgeStyle=orthogonalEdgeStyle;rounded=0;orthogonalLoop=1;jettySize=auto;html=1;" edge="1" parent="1" source="eGbX5_sSYhPdws3wWJT4-4" target="eGbX5_sSYhPdws3wWJT4-6">
          <mxGeometry relative="1" as="geometry" />
        </mxCell>
        <mxCell id="eGbX5_sSYhPdws3wWJT4-4" value="Please speak your name" style="rounded=1;whiteSpace=wrap;html=1;" vertex="1" parent="1">
          <mxGeometry x="350" y="210" width="120" height="60" as="geometry" />
        </mxCell>
        <mxCell id="eGbX5_sSYhPdws3wWJT4-9" value="" style="edgeStyle=orthogonalEdgeStyle;rounded=0;orthogonalLoop=1;jettySize=auto;html=1;" edge="1" parent="1" source="eGbX5_sSYhPdws3wWJT4-6" target="eGbX5_sSYhPdws3wWJT4-8">
          <mxGeometry relative="1" as="geometry" />
        </mxCell>
        <mxCell id="eGbX5_sSYhPdws3wWJT4-6" value="record the name and send it to api" style="rounded=1;whiteSpace=wrap;html=1;" vertex="1" parent="1">
          <mxGeometry x="350" y="300" width="120" height="60" as="geometry" />
        </mxCell>
        <mxCell id="eGbX5_sSYhPdws3wWJT4-25" value="" style="edgeStyle=orthogonalEdgeStyle;rounded=0;orthogonalLoop=1;jettySize=auto;html=1;entryX=1;entryY=0.5;entryDx=0;entryDy=0;exitX=1;exitY=0.5;exitDx=0;exitDy=0;" edge="1" parent="1" source="eGbX5_sSYhPdws3wWJT4-8" target="eGbX5_sSYhPdws3wWJT4-10">
          <mxGeometry relative="1" as="geometry">
            <mxPoint x="750" y="490" as="targetPoint" />
          </mxGeometry>
        </mxCell>
        <mxCell id="eGbX5_sSYhPdws3wWJT4-8" value="AI Engine API to match the voice file and provide a match response" style="rounded=1;whiteSpace=wrap;html=1;" vertex="1" parent="1">
          <mxGeometry x="540" y="300" width="120" height="60" as="geometry" />
        </mxCell>
        <mxCell id="eGbX5_sSYhPdws3wWJT4-13" value="" style="edgeStyle=orthogonalEdgeStyle;rounded=0;orthogonalLoop=1;jettySize=auto;html=1;" edge="1" parent="1" source="eGbX5_sSYhPdws3wWJT4-10" target="eGbX5_sSYhPdws3wWJT4-12">
          <mxGeometry relative="1" as="geometry" />
        </mxCell>
        <mxCell id="eGbX5_sSYhPdws3wWJT4-10" value="api response" style="rounded=1;whiteSpace=wrap;html=1;" vertex="1" parent="1">
          <mxGeometry x="550" y="380" width="120" height="60" as="geometry" />
        </mxCell>
        <mxCell id="eGbX5_sSYhPdws3wWJT4-15" value="" style="edgeStyle=orthogonalEdgeStyle;rounded=0;orthogonalLoop=1;jettySize=auto;html=1;" edge="1" parent="1" source="eGbX5_sSYhPdws3wWJT4-12" target="eGbX5_sSYhPdws3wWJT4-14">
          <mxGeometry relative="1" as="geometry" />
        </mxCell>
        <mxCell id="eGbX5_sSYhPdws3wWJT4-12" value="%age match with voice" style="rounded=1;whiteSpace=wrap;html=1;" vertex="1" parent="1">
          <mxGeometry x="350" y="380" width="120" height="60" as="geometry" />
        </mxCell>
        <mxCell id="eGbX5_sSYhPdws3wWJT4-28" value="" style="edgeStyle=orthogonalEdgeStyle;rounded=0;orthogonalLoop=1;jettySize=auto;html=1;" edge="1" parent="1" source="eGbX5_sSYhPdws3wWJT4-14" target="eGbX5_sSYhPdws3wWJT4-27">
          <mxGeometry relative="1" as="geometry" />
        </mxCell>
        <mxCell id="eGbX5_sSYhPdws3wWJT4-14" value="continue to ivr&lt;div&gt;&lt;br&gt;&lt;/div&gt;" style="rounded=1;whiteSpace=wrap;html=1;" vertex="1" parent="1">
          <mxGeometry x="350" y="460" width="120" height="60" as="geometry" />
        </mxCell>
        <mxCell id="eGbX5_sSYhPdws3wWJT4-27" value="additional questions by agent or ivr based on the %age match" style="rounded=1;whiteSpace=wrap;html=1;" vertex="1" parent="1">
          <mxGeometry x="350" y="540" width="120" height="60" as="geometry" />
        </mxCell>
      </root>
    </mxGraphModel>
  </diagram>
</mxfile>
